<svg xmlns="http://www.w3.org/2000/svg" width="151" height="55" viewBox="0 0 151 55"><defs><style>.cls-1{fill:#fff;}</style></defs><title>Artboard 1</title><g id="Symbols"><g id="Footer"><g id="habitat-logo-by-chef-white"><g id="Logotype"><path id="Shape" class="cls-1" d="M64,31.06a6.64,6.64,0,0,1-7-6.9c0-4.1,2.8-6.9,7-7a6.63,6.63,0,0,1,7,6.6,7.19,7.19,0,0,1-1.9,5.3,7.35,7.35,0,0,1-5.1,2Zm7.1-15a10.19,10.19,0,0,0-7.6-2.3,10,10,0,0,0-5.6,2.3.53.53,0,0,1-.9-.4v-9a.65.65,0,0,0-.6-.6H54a.63.63,0,0,0-.6.5v17.2a11.84,11.84,0,0,0,.2,2.6c1.1,5.2,4.9,8.1,10.5,8.1h.3A10.18,10.18,0,0,0,74,28a10.77,10.77,0,0,0-2.9-11.9Z"/><path id="Shape-2" data-name="Shape" class="cls-1" d="M47.1,24a7,7,0,0,1-1.9,5,6.86,6.86,0,0,1-5,2h0a6.67,6.67,0,0,1-7-6.8,6.72,6.72,0,0,1,6.9-7.1h0a6.87,6.87,0,0,1,7,6.9m1.4-6.5c-3.1-3.8-8.9-4.9-13.6-2.6a10.28,10.28,0,0,0-5.2,11.9,9.72,9.72,0,0,0,7.2,7.4,11.48,11.48,0,0,0,3.1.4,9,9,0,0,0,6.7-2.9c.2-.3.4-.5.6-.8v2.5a.65.65,0,0,0,.6.6h2.2a.65.65,0,0,0,.6-.6h0v-3.2c0-2.5,0-5.2-.1-7.8a8.76,8.76,0,0,0-2.1-4.9"/><path id="Shape-3" data-name="Shape" class="cls-1" d="M119.6,24a7,7,0,0,1-1.9,5,6.86,6.86,0,0,1-5,2h0a6.67,6.67,0,0,1-7-6.8,6.72,6.72,0,0,1,6.9-7.1h0a6.81,6.81,0,0,1,7,6.9m1.4-6.5c-3.1-3.8-8.9-4.9-13.6-2.6a10.28,10.28,0,0,0-5.2,11.9,9.57,9.57,0,0,0,7.2,7.4,11.48,11.48,0,0,0,3.1.4,9,9,0,0,0,6.7-2.9,5.55,5.55,0,0,0,.6-.8v2.5a.65.65,0,0,0,.6.6h2.2a.65.65,0,0,0,.6-.6h0v-3.2c0-2.5,0-5.2-.1-7.8a8.76,8.76,0,0,0-2.1-4.9"/><path id="Shape-4" data-name="Shape" class="cls-1" d="M19.9,13.86a8.79,8.79,0,0,0-7.5,1.8.53.53,0,0,1-.9-.4V6.66a.65.65,0,0,0-.6-.6H8.5a.65.65,0,0,0-.6.6v26.9a.65.65,0,0,0,.6.6h2.4a.58.58,0,0,0,.6-.6v-9.9a6.42,6.42,0,0,1,1.8-4.9,6.68,6.68,0,0,1,5-1.5,5.4,5.4,0,0,1,5.4,5.2c.1,2.2.2,4.5.2,6.7v4.3a.65.65,0,0,0,.6.6h2.4a.65.65,0,0,0,.6-.6V22.86c-.1-4.9-2.9-8.3-7.6-9"/><path id="Shape-5" data-name="Shape" class="cls-1" d="M99.7,25.66H96.9a.63.63,0,0,0-.6.5v.4a2,2,0,0,1-.1.8A3.63,3.63,0,0,1,92.4,31c-1.6.1-4.3-.2-4.5-3.1-.2-2.4-.2-4.9-.2-7.3v-2.4a.58.58,0,0,1,.6-.6h7.1a.58.58,0,0,0,.4-1l-2.7-2.4H88.3a.65.65,0,0,1-.6-.6V9.86a.65.65,0,0,0-.6-.6H84.8a.65.65,0,0,0-.6.6V11c0,.1-.1,10.7,0,17.3a6.06,6.06,0,0,0,2.2,4.4,8,8,0,0,0,5.5,1.9,5.28,5.28,0,0,0,1.3-.1,7.27,7.27,0,0,0,5.2-2.9,6.8,6.8,0,0,0,1.2-5.5l.1-.4Z"/><path id="Shape-6" data-name="Shape" class="cls-1" d="M140.9,26.16l-.1-.5h-2.9a.63.63,0,0,0-.6.5v.4a1.48,1.48,0,0,1-.1.7,3.69,3.69,0,0,1-3.7,3.7c-1.6.1-4.3-.2-4.5-3.1-.2-2.5-.2-5-.2-7.5v-2.2a.58.58,0,0,1,.6-.6h7a.54.54,0,0,0,.3-1l-3-2.3a.37.37,0,0,0-.3-.1h-4.1a.65.65,0,0,1-.6-.6V10a.65.65,0,0,0-.6-.6h-2.4a.65.65,0,0,0-.6.6v1.1c0,.1,0,10.6.1,17.1a6.46,6.46,0,0,0,5.3,6,11.43,11.43,0,0,0,2.8.3h.5a7.27,7.27,0,0,0,5.4-2.5,6.87,6.87,0,0,0,1.7-5.8"/><path id="Shape-7" data-name="Shape" class="cls-1" d="M77.9,34h2.4a.65.65,0,0,0,.6-.6V14.76a.58.58,0,0,0-.6-.6H77.9a.58.58,0,0,0-.6.6v18.7a.65.65,0,0,0,.6.5"/><path id="Shape-8" data-name="Shape" class="cls-1" d="M77.9,11.76h2.4a.65.65,0,0,0,.6-.6V8.76a.65.65,0,0,0-.6-.6H77.9a.65.65,0,0,0-.6.6v2.4a.58.58,0,0,0,.6.6"/><path id="Shape-9" data-name="Shape" class="cls-1" d="M141,42.46l-.2.4-.2-.4h-.1v.6h.1v-.5l.2.4h0l.2-.4v.5h.1l-.1-.6Zm-1.2,0h0l.2.1v.6h.1v-.6h.2v-.1Z"/><g id="BY-CHEF"><path id="Shape-10" data-name="Shape" class="cls-1" d="M111.4,45.66h0a3.27,3.27,0,0,1,3.3-3.3,3.22,3.22,0,0,1,2.5,1l-.9,1a2.57,2.57,0,0,0-1.6-.7,1.92,1.92,0,0,0-1.9,2h0a1.92,1.92,0,0,0,1.9,2,2.29,2.29,0,0,0,1.7-.8l.9.9a3.31,3.31,0,0,1-2.6,1.1,3.13,3.13,0,0,1-3.3-3.2"/><polygon id="Shape-11" data-name="Shape" class="cls-1" points="119.1 42.46 120.6 42.46 120.6 44.96 123.2 44.96 123.2 42.46 124.6 42.46 124.6 48.86 123.2 48.86 123.2 46.26 120.6 46.26 120.6 48.86 119.1 48.86 119.1 42.46"/><polygon id="Shape-12" data-name="Shape" class="cls-1" points="126.8 42.46 131.7 42.46 131.7 43.66 128.3 43.66 128.3 45.06 131.3 45.06 131.3 46.26 128.3 46.26 128.3 47.66 131.8 47.66 131.8 48.96 126.8 48.96 126.8 42.46"/><polygon id="Shape-13" data-name="Shape" class="cls-1" points="133.8 42.46 138.7 42.46 138.7 43.66 135.3 43.66 135.3 45.06 138.3 45.06 138.3 46.36 135.3 46.36 135.3 48.86 133.8 48.86 133.8 42.46"/><path id="Shape-14" data-name="Shape" class="cls-1" d="M107.1,49v-1.6l1.4-2.1h-.8l-.9,1.5h0l-.9-1.5H105l1.4,2.1v1.5l.7.1Zm-3.4-3a.4.4,0,1,1,0,.8h-1V46Zm.1,1.4a.46.46,0,0,1,.5.4c0,.2-.1.4-.5.4h-1.1v-.9h1.1Zm.1,1.6a1,1,0,0,0,1.1-1,.87.87,0,0,0-.6-.9h0a.89.89,0,0,0,.5-.8,1,1,0,0,0-1.1-1H102V49Z"/></g></g></g></g></g></svg>
