<svg xmlns="http://www.w3.org/2000/svg" xmlns:xlink="http://www.w3.org/1999/xlink" width="494" height="116" viewBox="0 0 494 116"><defs><style>.cls-1{fill:#fff;}.cls-2{fill:#ddc7ae;}.cls-3{fill-opacity:0.1;}.cls-4,.cls-8{fill:none;}.cls-4{stroke:#debfa5;}.cls-5{fill:#a2bd7c;}.cls-6{fill:#ffe9d1;}.cls-7{fill:#837365;}.cls-8{stroke:#827365;stroke-linecap:round;stroke-linejoin:round;}.cls-9{fill:#827365;}.cls-10{mask:url(#mask);}.cls-11{fill:#ff9012;}.cls-12{fill:#ffe48f;}.cls-13{fill:#b9da8d;}.cls-14{fill:#cad3d9;}.cls-15{fill:#debfa5;}.cls-16{fill:#e8f0f6;}.cls-17{fill:#87b09a;}.cls-18{fill:#799987;}.cls-19{filter:url(#image-cat-set-c);}.cls-20{filter:url(#image-cat-set-e);}.cls-21{mask:url(#mask-2);}.cls-22{fill:#e2f0f7;}.cls-23{fill:#f3fcff;}.cls-24{mask:url(#mask-3);}.cls-25{fill:#847264;}.cls-26{fill:#685a50;}.cls-27{fill:#9b8676;}.cls-28{fill:#aae655;}.cls-29{fill:#bfec80;}.cls-30{fill:#759684;}.cls-31{opacity:0.5;}.cls-32{mask:url(#mask-4);}</style><mask id="mask" x="442.96" y="55.85" width="22.68" height="22.01" maskUnits="userSpaceOnUse"><g id="image-cat-set-b"><path id="image-cat-set-a" class="cls-1" d="M443,69.91c8.58.17,12.57-4.69,15.23-10.9s9.74-2.37,6.71,4S454.26,77.88,443,77.74Z"/></g></mask><filter id="image-cat-set-c" x="-262.6" y="-266" width="625.3" height="632" name="image-cat-set-c"><feOffset result="shadowOffsetOuter1" in="SourceAlpha"/><feGaussianBlur result="shadowBlurOuter1" stdDeviation="3.5" in="shadowOffsetOuter1"/></filter><filter id="image-cat-set-e" x="-262.6" y="-266" width="625.3" height="632" name="image-cat-set-e"><feOffset result="shadowOffsetOuter1" in="SourceAlpha"/><feGaussianBlur result="shadowBlurOuter1" stdDeviation="3.5" in="shadowOffsetOuter1"/></filter><mask id="mask-2" x="0" y="69.68" width="44.43" height="38.18" maskUnits="userSpaceOnUse"><g id="image-cat-set-h"><polygon id="image-cat-set-g" class="cls-1" points="0 107.86 44.43 107.86 44.43 69.68 0 69.68 0 107.86"/></g></mask><mask id="mask-3" x="0" y="66.49" width="44.43" height="6.52" maskUnits="userSpaceOnUse"><g id="image-cat-set-j"><polygon id="image-cat-set-i" class="cls-1" points="44.43 73.01 44.43 66.49 0 66.49 0 73.01 44.43 73.01"/></g></mask><mask id="mask-4" x="0" y="69.68" width="44.43" height="3.33" maskUnits="userSpaceOnUse"><g id="image-cat-set-l"><polygon id="image-cat-set-k" class="cls-1" points="0 69.68 0 73.01 44.43 73.01 44.43 69.68 0 69.68"/></g></mask></defs><title>Artboard 1</title><path class="cls-2" d="M383.44,97.6h0a4,4,0,0,1-4-4V78.85h8V93.61A4,4,0,0,1,383.44,97.6Z"/><rect class="cls-3" x="379.43" y="84.85" width="8.01" height="3"/><path class="cls-4" d="M409.3,5.93C401,7.09,398,16.76,398,21.1"/><path class="cls-2" d="M411.44,97.6h0a4,4,0,0,1-4-4V78.85h8V93.61A4,4,0,0,1,411.44,97.6Z"/><path class="cls-2" d="M356.31,42.86a4,4,0,0,1,5.64.48l9.48,11.31-6.14,5.15-9.48-11.31A4,4,0,0,1,356.31,42.86Z"/><rect class="cls-2" x="364.43" y="19.85" width="78.54" height="65.31" rx="6" ry="6"/><path class="cls-5" d="M370.43,66.85H443V79.6h0a6,6,0,0,1-6,6H370.43a6,6,0,0,1-6-6V72.85h0A6,6,0,0,1,370.43,66.85Z"/><rect class="cls-6" x="364.43" y="22.85" width="63.85" height="61.85" rx="4" ry="4"/><path class="cls-1" d="M396.63,41h0a12.79,12.79,0,0,1,12.8,12.79V66.87H383.84V53.81h0A12.79,12.79,0,0,1,396.63,41Z"/><ellipse class="cls-7" cx="381.15" cy="38.57" rx="1.72" ry="1.72"/><ellipse class="cls-7" cx="411.15" cy="38.57" rx="1.72" ry="1.72"/><path class="cls-7" d="M399.82,46.87l-1,.77a5.41,5.41,0,0,1-5.75.35,3.82,3.82,0,0,1-.51-.35l-1-.77a.5.5,0,0,1,.11-.87,1.22,1.22,0,0,1,.58-.15h6.8c.5,0,.9.28.9.63A.55.55,0,0,1,399.82,46.87Zm-2.28-6-.42.51a1.77,1.77,0,0,1-2.55.24,2.5,2.5,0,0,1-.22-.24l-.43-.51a.42.42,0,0,1,.05-.58.4.4,0,0,1,.26-.1h3a.41.41,0,0,1,.4.42A.43.43,0,0,1,397.54,40.87Z"/><path class="cls-8" d="M366.43,46.85h3m53.19.37h3m-59.19-4.37h3m53.19-.13h3m-59.19,9.13h3m53.19-.13h3"/><path class="cls-2" d="M413.75,13.72l4.42,7.73h-14l4.41-7.73h0a3,3,0,0,1,5.21,0Z"/><path class="cls-9" d="M412,18.31l1.79,3.14h-5.32l1.79-3.14h0a1,1,0,0,1,1.37-.37A1.09,1.09,0,0,1,412,18.31Z"/><path class="cls-2" d="M384.75,13.72l4.42,7.73h-14l4.41-7.73h0a3,3,0,0,1,5.21,0Z"/><path class="cls-9" d="M383,18.31l1.79,3.14h-5.32l1.79-3.14h0a1,1,0,0,1,1.37-.37A1.09,1.09,0,0,1,383,18.31Z"/><path class="cls-2" d="M443,69.91c8.58.17,12.57-4.69,15.23-10.9s9.74-2.37,6.71,4S454.26,77.88,443,77.74Z"/><rect class="cls-3" x="407.43" y="84.85" width="8.01" height="3"/><path id="image-cat-set-a-2" data-name="image-cat-set-a" class="cls-2" d="M443,69.91c8.58.17,12.57-4.69,15.23-10.9s9.74-2.37,6.71,4S454.26,77.88,443,77.74Z"/><g class="cls-10"><rect class="cls-3" x="442.96" y="69.41" width="3.43" height="8.45"/></g><path class="cls-2" d="M454.59,43a4,4,0,0,1-1,5.57L441.54,57l-4.6-6.56L449,42A4,4,0,0,1,454.59,43Z"/><ellipse class="cls-11" cx="412.43" cy="5.35" rx="2.25" ry="1.5"/><ellipse class="cls-11" cx="409.43" cy="2.35" rx="1.5" ry="2.25"/><ellipse class="cls-11" cx="406.43" cy="5.35" rx="2.25" ry="1.5"/><ellipse class="cls-11" cx="409.43" cy="8.35" rx="1.5" ry="2.25"/><ellipse class="cls-11" cx="411.55" cy="7.47" rx="1.5" ry="2.25" transform="translate(115.26 293.2) rotate(-45)"/><ellipse class="cls-11" cx="411.55" cy="3.23" rx="2.25" ry="1.5" transform="translate(118.26 291.96) rotate(-45)"/><ellipse class="cls-11" cx="407.31" cy="3.23" rx="1.5" ry="2.25" transform="translate(117.01 288.96) rotate(-45)"/><ellipse class="cls-11" cx="407.31" cy="7.47" rx="2.25" ry="1.5" transform="translate(114.01 290.2) rotate(-45)"/><path class="cls-12" d="M409.43,6.85a1.5,1.5,0,1,1,1.5-1.5,1.5,1.5,0,0,1-1.5,1.5"/><path class="cls-13" d="M364.43,66.85h63.85V81.6h0a4,4,0,0,1-4,4H368.43a4,4,0,0,1-4-4Z"/><path class="cls-14" d="M485.24,18.29a7.71,7.71,0,0,0-1.39-9.81.42.42,0,0,1-.12-.24,7.63,7.63,0,0,0-9.94,11.58L472.74,21l5.73,5,0-.06,3,2.63,1.05-1.17a5.37,5.37,0,0,0,7.6-.46l3.51-4-4-3.51A5.42,5.42,0,0,0,485.24,18.29Z"/><path class="cls-15" d="M469.6,19.56a2.12,2.12,0,0,1,2.43.26L480.1,27c.82.7,2.23,3.27,1.41,4s-3.39-.58-4.21-1.28l-8.07-7.14a1.86,1.86,0,0,1-.53-1.82L467,19.94a.43.43,0,0,1-.24-.59.52.52,0,0,1,.7-.23l1.2.52-.61-1.46a.42.42,0,0,1,.23-.58.43.43,0,0,1,.59.23Z"/><path class="cls-16" d="M480.47,21.08l1.75-1.95c.11-.12.11-.23.23-.35a7.59,7.59,0,0,0-1.17-10.64,7.84,7.84,0,0,0-10.29.7c-.12,0-.12.12-.23.23a7.71,7.71,0,0,0,.7,10.76,1.48,1.48,0,0,0,.12,2.11l4.56,4h0l3.38,3a.88.88,0,0,0,1.17-.11.74.74,0,0,1,1.05-.12,5.53,5.53,0,0,0,7-.94l3-3.39.12-.11a.75.75,0,0,0-.12-1.06L489,20.76A6.26,6.26,0,0,0,480.47,21.08Z"/><path class="cls-11" d="M475.19,15.73a2.32,2.32,0,1,0,3.16-3.39,2.38,2.38,0,0,0-3.28.11s0,.12-.11.12a2.23,2.23,0,0,0,.23,3.16"/><path class="cls-17" d="M181.66,89.36c-5.2-1.65-5.2-4.22,0-5.87L223.44,70.1a35.49,35.49,0,0,1,18.58,0L283.8,83.49c5.2,1.65,5.2,4.22,0,5.87L242,102.75a35.49,35.49,0,0,1-18.58,0Z"/><path class="cls-18" d="M287.7,68.86v11c0,1.13-1.3,2.26-3.9,3L242,96.6a34.45,34.45,0,0,1-18.57,0L181.66,82.83c-2.6-.76-3.9-1.89-3.9-3v-11c.18.94,1.48,1.89,3.71,2.64l41.79,13.78a34.45,34.45,0,0,0,18.57,0L283.62,71.5c2.22-.75,3.52-1.7,3.71-2.64Z"/><path class="cls-18" d="M287.7,86.42v11c0,1.13-1.3,2.26-3.9,3L242,114.16a34.45,34.45,0,0,1-18.57,0l-41.78-13.77c-2.6-.76-3.9-1.89-3.9-3v-11c.18,1,1.48,1.89,3.71,2.64l41.79,13.78a34.45,34.45,0,0,0,18.57,0l41.79-13.78c2.22-.75,3.52-1.69,3.71-2.64Z"/><path class="cls-17" d="M181.66,71.79c-5.2-1.65-5.2-4.21,0-5.86l41.78-13.39a35.49,35.49,0,0,1,18.58,0L283.8,65.93c5.2,1.65,5.2,4.21,0,5.86L242,85.18a35.49,35.49,0,0,1-18.58,0Z"/><g class="cls-19"><ellipse id="image-cat-set-d" cx="184.75" cy="95.7" rx="2" ry="1.97"/></g><ellipse id="image-cat-set-d-2" data-name="image-cat-set-d" class="cls-13" cx="184.75" cy="95.7" rx="2" ry="1.97"/><g class="cls-20"><ellipse id="image-cat-set-f" cx="184.75" cy="78.93" rx="2" ry="1.97"/></g><ellipse id="image-cat-set-f-2" data-name="image-cat-set-f" class="cls-13" cx="184.75" cy="78.93" rx="2" ry="1.97"/><g class="cls-21"><path class="cls-22" d="M44.43,69.68V103a4.9,4.9,0,0,1-4.93,4.87H4.93A4.9,4.9,0,0,1,0,103V69.68H2.38V70c0,.65,1,1.17,2.22,1.17h35c1.22,0,2.22-.52,2.22-1.17v-.28Z"/></g><path class="cls-22" d="M41.81,69.68V70c0,.81-1,1.47-2.22,1.47H4.6c-1.23,0-2.22-.66-2.22-1.47v-.35Z"/><path class="cls-23" d="M41.81,69.21V70c0,.65-1,1.17-2.22,1.17H4.6c-1.23,0-2.22-.52-2.22-1.17v-.75c0-.65,1-1.17,2.22-1.17h35c1.22,0,2.22.52,2.22,1.17"/><path class="cls-22" d="M41.81,69.21V70c0,.65-1,1.17-2.22,1.17H4.6c-1.23,0-2.22-.52-2.22-1.17v-.75c0-.65,1-1.17,2.22-1.17h35c1.22,0,2.22.52,2.22,1.17"/><g class="cls-24"><path class="cls-23" d="M41.81,70c0,.65-1,1.17-2.22,1.17H4.6c-1.23,0-2.22-.52-2.22-1.17v-.75c0-.65,1-1.17,2.22-1.17h35c1.22,0,2.22.52,2.22,1.17Zm.12-3.47H2.5A2.48,2.48,0,0,0,0,69v1.58A2.48,2.48,0,0,0,2.5,73H41.93a2.48,2.48,0,0,0,2.5-2.47V69a2.49,2.49,0,0,0-2.5-2.47Z"/></g><polygon class="cls-25" points="3.02 95.68 41.41 95.68 41.41 82.99 3.02 82.99 3.02 95.68"/><path class="cls-26" d="M40.54,105.13H3.89a.88.88,0,0,1-.87-.9v-9H41.41v9a.88.88,0,0,1-.87.9"/><path class="cls-27" d="M40.54,86.34H3.89A.86.86,0,0,1,3,85.48v-5a.87.87,0,0,1,.87-.87H40.54a.87.87,0,0,1,.87.87v5a.86.86,0,0,1-.87.86"/><path class="cls-28" d="M36.12,72.22a11.77,11.77,0,0,1-4.3.79,12.18,12.18,0,0,1,0-24.36,12.31,12.31,0,0,1,2.44.24c-9.69,1.72-16.86,21.63,1.86,23.33"/><path class="cls-29" d="M43.92,60.83a12.16,12.16,0,0,1-7.8,11.39c-18.73-1.7-11.55-21.61-1.86-23.33a12.17,12.17,0,0,1,9.66,11.94"/><path class="cls-28" d="M28,60.86a12,12,0,0,1-4.3.79A12.19,12.19,0,1,1,26.1,37.53C16.41,39.25,9.24,59.16,28,60.86"/><path class="cls-29" d="M35.77,49.47A12.19,12.19,0,0,1,28,60.86C9.24,59.16,16.41,39.25,26.1,37.53a12.17,12.17,0,0,1,9.67,11.94"/><path class="cls-28" d="M18.36,72.22a11.77,11.77,0,0,1-4.3.79A12.18,12.18,0,1,1,16.5,48.89C6.81,50.61-.36,70.52,18.36,72.22"/><path class="cls-29" d="M26.17,60.83a12.17,12.17,0,0,1-7.81,11.39C-.36,70.52,6.81,50.61,16.5,48.89a12.17,12.17,0,0,1,9.67,11.94"/><path class="cls-30" d="M26.71,59.82a1.5,1.5,0,0,0-2.1,0l-.43.43V57.92a1.49,1.49,0,0,0-3,0v5.26l-.44-.43a1.5,1.5,0,0,0-2.1,0,1.45,1.45,0,0,0,0,2.07l2.54,2.51v14h3v-17l2.53-2.5a1.45,1.45,0,0,0,0-2.07"/><g class="cls-31"><g class="cls-32"><path class="cls-23" d="M44.43,69.68v.86A2.48,2.48,0,0,1,41.93,73H2.5A2.48,2.48,0,0,1,0,70.54v-.86H2.38V70c0,.65,1,1.17,2.22,1.17h35c1.22,0,2.22-.52,2.22-1.17v-.28Z"/></g></g><path class="cls-25" d="M18.65,83h7.94a1.48,1.48,0,0,0-1.49-1.47,1.38,1.38,0,0,0-.45.08,2.46,2.46,0,0,0-2-1.06,2.5,2.5,0,0,0-2,1.06,1.27,1.27,0,0,0-.44-.08A1.48,1.48,0,0,0,18.65,83"/></svg>