<svg xmlns="http://www.w3.org/2000/svg" width="1440" height="102" viewBox="0 0 1440 102">
  <g fill="#87B09A" fill-rule="evenodd" transform="translate(0 .784)">
    <rect width="1439.253" height="17.997" y="83.765"/>
    <path fill-opacity=".6" d="M1438.2957,58.6471044 C1238.59248,58.6471044 1218.5374,40.1132099 1027.89734,33.2828183 C837.25728,26.4524267 766.531492,62.756819 572.69662,58.6471044 C378.861747,54.5373898 189.719518,8.11266043 0,6.99872521 L0,84.9845204 L1438.2957,84.9845204 L1438.2957,58.6471044 Z"/>
    <path fill-opacity=".6" d="M0,69.8106622 C32.2848552,69.8106622 61.0133321,68.4609466 87.0152944,66.1976264 C221.959797,54.4514889 283.468811,18.0984768 387.541242,18.0984768 C511.667007,18.0984768 527.837978,56.2420189 799.578986,57.181766 C1071.31999,58.1215131 1137.44806,-27.7058735 1439.25339,9.24204653 L1439.25339,84.9845204 L0,84.9845204 L0,69.8106622 Z"/>
    <path d="M410.779096,63.4558146 C513.624182,63.299731 594.589994,72.2581079 866.402116,72.5312542 C1138.21424,72.8044005 1249.35786,54.3887362 1439.25339,53.9901659 L1439.25339,84.9845204 L0,84.9845204 C0,84.9845204 307.934009,63.6118982 410.779096,63.4558146 Z"/>
  </g>
</svg>
