<svg xmlns="http://www.w3.org/2000/svg" width="99" height="102" viewBox="0 0 99 102"><defs><style>.cls-1{fill-opacity:0.1;}.cls-2,.cls-8{fill:none;}.cls-2{stroke:#debfa5;}.cls-3{fill:#ddc7ae;}.cls-4{fill:#a2bd7c;}.cls-5{fill:#ffe9d1;}.cls-6{fill:#fff;}.cls-7{fill:#837365;}.cls-8{stroke:#827365;stroke-linecap:round;stroke-linejoin:round;}.cls-9{fill:#827365;}.cls-10{fill:#ff9012;}.cls-11{fill:#ffe48f;}.cls-12{fill:#b9da8d;}</style></defs><title>Artboard 1</title><rect class="cls-1" x="77.63" y="72.97" width="8.01" height="3" transform="translate(-19.02 28.87) rotate(-18)"/><path class="cls-2" d="M32.18,6c8.23-1.45,14.08,6.81,15.42,10.94"/><path class="cls-3" d="M43.33,100.85c1.85,1.21,3.72.89,5.37-.78Q60.06,89.51,57.1,81.6c-3-7.91-8.59-3.22-7.6,2.46q1,5.68-7.36,11.26A4,4,0,0,0,43.33,100.85Z"/><path class="cls-3" d="M69.6,92.32c1.86,1.2,3.73.88,5.37-.78Q86.33,81,83.37,73.06c-3-7.91-8.59-3.22-7.59,2.47q1,5.67-7.36,11.26A4,4,0,0,0,69.6,92.32Z"/><path class="cls-3" d="M94,24.73a4,4,0,0,0-5.21,2.2L83.26,40.61l7.42,3,5.53-13.68A4,4,0,0,0,94,24.73Z"/><rect class="cls-3" x="12.63" y="15.89" width="78.55" height="65.31" rx="6" ry="6" transform="translate(-12.46 18.41) rotate(-18)"/><path class="cls-4" d="M88,51.91,19,74.32l3.94,12.13h0a6,6,0,0,0,7.56,3.85L93.77,69.74h0a6,6,0,0,0,3.85-7.57l-2.08-6.41h0A6,6,0,0,0,88,51.91Z"/><rect class="cls-5" x="27.35" y="16.56" width="63.85" height="61.85" rx="4" ry="4" transform="translate(-11.77 20.64) rotate(-18)"/><path class="cls-6" d="M55.7,36h0a12.78,12.78,0,0,0-8.21,16.12l4,12.43,24.34-7.91-4-12.42h0A12.81,12.81,0,0,0,55.7,36Z"/><path class="cls-7" d="M53.8,36.11l.56.36a1.76,1.76,0,0,0,2.49-.57,1.3,1.3,0,0,0,.14-.29l.25-.62a.42.42,0,0,0-.23-.53.36.36,0,0,0-.27,0l-2.86.92a.41.41,0,0,0-.25.52A.37.37,0,0,0,53.8,36.11Z"/><ellipse class="cls-7" cx="69.04" cy="28.32" rx="1.72" ry="1.72" transform="translate(-5.37 22.72) rotate(-18)"/><ellipse class="cls-7" cx="40.51" cy="37.59" rx="1.72" ry="1.72" transform="translate(-9.63 14.36) rotate(-18)"/><path class="cls-7" d="M53.85,42l1.15.44a5.12,5.12,0,0,0,6-1.93l.67-1a.5.5,0,0,0-.37-.79,1.24,1.24,0,0,0-.6,0l-6.47,2.1c-.48.16-.77.55-.66.88A.53.53,0,0,0,53.85,42Z"/><path class="cls-8" d="M85.6,31.65l-2.85.93M32.28,49.36l-2.86.93m55-22.44-2.86.92M30.89,45.08,28,46M87.15,36.4l-2.86.93M33.67,53.64l-2.86.93"/><path class="cls-3" d="M30.35,14.76l-1.81,8.72L41.9,19.14l-6.59-6h0a3,3,0,0,0-4.24.2A3.07,3.07,0,0,0,30.35,14.76Z"/><path class="cls-9" d="M33.43,18.59l-.74,3.54,5.06-1.64-2.67-2.43h0a1,1,0,0,0-1.42.06A1,1,0,0,0,33.43,18.59Z"/><path class="cls-3" d="M57.94,5.8l-1.82,8.72,13.36-4.34-6.59-6h0a3,3,0,0,0-4.24.2A2.91,2.91,0,0,0,57.94,5.8Z"/><path class="cls-9" d="M61,9.63l-.74,3.54,5.06-1.64L62.66,9.1h0a1,1,0,0,0-1.41.06A1,1,0,0,0,61,9.63Z"/><polygon class="cls-1" points="56.98 80.9 49.36 83.38 49.52 86.48 57.91 83.76 56.98 80.9"/><polygon class="cls-1" points="83.25 72.37 75.64 74.84 75.79 77.95 84.18 75.22 83.25 72.37"/><path class="cls-3" d="M.56,55.24a4,4,0,0,0,2.65,5l14.11,4.32,2.34-7.66L5.55,52.57A4,4,0,0,0,.56,55.24Z"/><ellipse class="cls-10" cx="29.03" cy="6.4" rx="2.25" ry="1.5" transform="translate(-0.56 9.28) rotate(-18)"/><ellipse class="cls-10" cx="30.96" cy="2.62" rx="1.5" ry="2.25" transform="translate(0.71 9.69) rotate(-18)"/><ellipse class="cls-10" cx="34.74" cy="4.54" rx="2.25" ry="1.5" transform="matrix(0.95, -0.31, 0.31, 0.95, 0.3, 10.96)"/><ellipse class="cls-10" cx="32.81" cy="8.32" rx="1.5" ry="2.25" transform="translate(-0.97 10.55) rotate(-18)"/><ellipse class="cls-10" cx="30.52" cy="8.14" rx="2.25" ry="1.5" transform="translate(9.41 31.64) rotate(-63)"/><ellipse class="cls-10" cx="29.21" cy="4.11" rx="1.5" ry="2.25" transform="translate(12.29 28.27) rotate(-63)"/><ellipse class="cls-10" cx="33.24" cy="2.8" rx="2.25" ry="1.5" transform="translate(15.66 31.15) rotate(-63)"/><ellipse class="cls-10" cx="34.56" cy="6.83" rx="1.5" ry="2.25" transform="translate(12.78 34.52) rotate(-63)"/><path class="cls-11" d="M32.35,6.89a1.5,1.5,0,1,0-1.89-1,1.49,1.49,0,0,0,1.89,1"/><path class="cls-12" d="M93.68,50.05,33,69.78l4.55,14h0a4,4,0,0,0,5,2.57L95.67,69.12h0a4,4,0,0,0,2.57-5Z"/></svg>