<svg xmlns="http://www.w3.org/2000/svg" xmlns:xlink="http://www.w3.org/1999/xlink" width="114" height="70" viewBox="0 0 114 70">
  <defs>
    <path id="nodejs-logo-a" d="M11.5868999,0.527583026 L0.746220938,6.80872694 C0.340177941,7.04378229 0.0910970655,7.47773063 0.0910970655,7.94680812 L0.0910970655,20.5178782 C0.0910970655,20.987214 0.340177941,21.4209041 0.746220938,21.6559594 L11.5876719,27.9420111 C11.9929429,28.1762915 12.4926486,28.1762915 12.897405,27.9420111 L23.7370547,21.6559594 C24.1410392,21.4209041 24.3906347,20.9869557 24.3906347,20.5178782 L24.3906347,7.94680812 C24.3906347,7.47773063 24.1410392,7.04378229 23.7344816,6.80872694 L12.8963757,0.527583026 C12.6930969,0.410571956 12.4666598,0.351937269 12.2402226,0.351937269 C12.0137854,0.351937269 11.7873483,0.410571956 11.5840695,0.527583026"/>
    <linearGradient id="nodejs-logo-c" x1="66.928%" x2="33.035%" y1="15.904%" y2="83.99%">
      <stop offset="30%" stop-color="#3E863D"/>
      <stop offset="50%" stop-color="#55934F"/>
      <stop offset="80%" stop-color="#5AAD45"/>
    </linearGradient>
    <path id="nodejs-logo-d" d="M0.102419865,21.2788376 C0.206141928,21.4139299 0.335858852,21.530941 0.488482137,21.6187638 L9.79000914,27.0108303 L11.3394057,27.9045572 C11.5710431,28.0388745 11.8351097,28.0957011 12.0945435,28.0763284 C12.1810215,28.0693542 12.2674994,28.0530812 12.3519184,28.029059 L23.7881124,7.01356089 C23.7006049,6.91798893 23.5981697,6.83791513 23.4833806,6.77075646 L16.383438,2.65599631 L12.630398,0.488837638 C12.5238448,0.426845018 12.4082835,0.382933579 12.2906632,0.351937269 L0.102419865,21.2788376 Z"/>
    <linearGradient id="nodejs-logo-f" x1="21.786%" x2="78.732%" y1="71.295%" y2="29.364%">
      <stop offset="57%" stop-color="#3E863D"/>
      <stop offset="72%" stop-color="#619857"/>
      <stop offset="100%" stop-color="#76AC64"/>
    </linearGradient>
    <path id="nodejs-logo-g" d="M11.3366647,0.0985424354 C11.1547259,0.116623616 10.9769046,0.173450185 10.8129796,0.26695572 L0.00216194811,6.53001845 L11.6596253,27.8425646 C11.821749,27.8193173 11.9812993,27.7650738 12.1254092,27.6813838 L22.9671075,21.3953321 C23.3016484,21.200572 23.5306802,20.8709779 23.6001618,20.4974723 L11.71624,0.11998155 C11.6287447,0.102675277 11.5412493,0.0936346863 11.4511806,0.0936346863 C11.4151532,0.0936346863 11.3791257,0.0954428044 11.3430982,0.098800738"/>
    <linearGradient id="nodejs-logo-i" x1=".034%" x2="100.019%" y1="50.003%" y2="50.003%">
      <stop offset="16%" stop-color="#6BBF47"/>
      <stop offset="38%" stop-color="#79B461"/>
      <stop offset="47%" stop-color="#75AC64"/>
      <stop offset="70%" stop-color="#659E5A"/>
      <stop offset="90%" stop-color="#3E863D"/>
    </linearGradient>
  </defs>
  <g fill="none" fill-rule="evenodd">
    <path fill="#689F63" fill-rule="nonzero" d="M56.2658194,69.9819188 C55.8901084,69.9819188 55.5169707,69.8829889 55.1875801,69.6926199 L51.7554853,67.6530627 C51.2428713,67.3653137 51.4930023,67.2635424 51.6620722,67.2049077 C52.3455576,66.9646863 52.4842619,66.9104428 53.2138104,66.4945756 C53.2904966,66.4506642 53.3908578,66.4661624 53.4693454,66.5126568 L56.1060135,68.0831365 C56.201228,68.134797 56.3363296,68.134797 56.4245959,68.0831365 L66.7051828,62.126679 C66.8003973,62.0724354 66.862158,61.9613653 66.862158,61.8477122 L66.862158,49.9399631 C66.862158,49.8211439 66.8003973,49.7152399 66.7031242,49.6558303 L56.4266546,43.7045387 C56.3314402,43.6477122 56.2053454,43.6477122 56.1101309,43.7045387 L45.8357201,49.6558303 C45.7361309,49.7126568 45.6728262,49.8237269 45.6728262,49.9373801 L45.6728262,61.8451292 C45.6728262,61.9587823 45.7345869,62.0672694 45.8323747,62.1215129 L48.6476343,63.7539852 C50.1762122,64.5211439 51.1103431,63.6170849 51.1103431,62.7078598 L51.1103431,50.9550923 C51.1103431,50.7871956 51.2415847,50.6580443 51.4088533,50.6580443 L52.7109752,50.6580443 C52.8730971,50.6580443 53.006912,50.7871956 53.006912,50.9550923 L53.006912,62.7130258 C53.006912,64.7587823 51.895219,65.934059 49.962623,65.934059 C49.3681761,65.934059 48.8998239,65.934059 47.5925553,65.2883026 L44.8956704,63.728155 C44.2291693,63.3407011 43.8174312,62.6174539 43.8174312,61.8451292 L43.8174312,49.9373801 C43.8174312,49.1624723 44.2291693,48.4392251 44.8956704,48.0569373 L55.1865508,42.0978967 C55.8376117,41.728524 56.7022619,41.728524 57.3481761,42.0978967 L67.6261896,48.0595203 C68.2901174,48.4443911 68.7044289,49.1650554 68.7044289,49.9399631 L68.7044289,61.8477122 C68.7044289,62.6200369 68.2901174,63.3407011 67.6261896,63.728155 L57.3481761,69.6871956 C57.0187856,69.8783395 56.6456479,69.9764945 56.2647901,69.9764945"/>
    <path fill="#689F63" fill-rule="nonzero" d="M59.4413499,61.776679 C54.9431106,61.776679 53.9999729,59.704059 53.9999729,57.9656827 C53.9999729,57.800369 54.1327585,57.6686347 54.2977111,57.6686347 L55.6255666,57.6686347 C55.7722483,57.6686347 55.8957698,57.7758303 55.91893,57.9212546 C56.1196524,59.2794096 56.7166727,59.964428 59.4367178,59.964428 C61.6034898,59.964428 62.524754,59.4731365 62.524754,58.3198155 C62.524754,57.6559779 62.2622709,57.1626199 58.8963115,56.8319926 C56.0810519,56.5530258 54.3414582,55.9305166 54.3414582,53.670369 C54.3414582,51.5884502 56.0913454,50.3485978 59.0224063,50.3485978 C62.3137381,50.3485978 63.9452506,51.4954613 64.1511196,53.9596679 C64.1588397,54.0449077 64.1279594,54.1275646 64.0713454,54.1895572 C64.0147314,54.2489668 63.9349571,54.2851292 63.8526095,54.2851292 L62.5170339,54.2851292 C62.3780722,54.2851292 62.2571242,54.1869742 62.2288172,54.0526568 C61.9071467,52.6242435 61.129991,52.167048 59.0172596,52.167048 C56.6523386,52.167048 56.3769887,52.9936162 56.3769887,53.6135424 C56.3769887,54.365203 56.7012325,54.5847601 59.8922032,55.0083764 C63.0522935,55.4294096 64.5525643,56.0235055 64.5525643,58.2526568 C64.5525643,60.4998893 62.6843025,61.7888192 59.4264244,61.7888192 L59.4413499,61.776679 Z M71.9484108,49.1604059 L72.2932415,49.1604059 C72.5763115,49.1604059 72.6303521,48.9615129 72.6303521,48.8452768 C72.6303521,48.5404797 72.4219097,48.5404797 72.3061084,48.5404797 L71.9509842,48.5404797 L71.9484108,49.1604059 Z M71.5289526,48.1840221 L72.2932415,48.1840221 C72.5557246,48.1840221 73.0703973,48.1840221 73.0703973,48.772952 C73.0703973,49.1836531 72.8079142,49.268893 72.6509391,49.3205535 C72.9571693,49.3412177 72.9777562,49.5426937 73.01893,49.8268266 C73.0395169,50.0050554 73.0729707,50.3124354 73.1347314,50.4157565 L72.6638059,50.4157565 C72.6509391,50.3124354 72.5788849,49.7441697 72.5788849,49.7131734 C72.5480045,49.5866052 72.5042573,49.5246125 72.3472822,49.5246125 L71.9587043,49.5246125 L71.9587043,50.4183395 L71.5289526,50.4183395 L71.5289526,48.1840221 Z M70.6102619,49.2947232 C70.6102619,50.2194465 71.3539639,50.968524 72.2675079,50.968524 C73.188772,50.968524 73.932474,50.2039483 73.932474,49.2947232 C73.932474,48.367417 73.1784786,47.6312546 72.2649345,47.6312546 C71.3642573,47.6312546 70.6076885,48.3570849 70.6076885,49.2921402 L70.6102619,49.2947232 Z M74.2515711,49.2998893 C74.2515711,50.3950923 73.358614,51.2888192 72.2700813,51.2888192 C71.1892686,51.2888192 70.2885914,50.4054244 70.2885914,49.2998893 C70.2885914,48.17369 71.2098555,47.3109594 72.2700813,47.3109594 C73.3380271,47.3109594 74.2489977,48.1762731 74.2489977,49.2998893 L74.2515711,49.2998893 Z"/>
    <path fill="#FFF" d="M24.4304831,23.3892989 C24.4304831,22.9140221 24.1808668,22.4774908 23.7722167,22.2411439 L12.8724786,15.94631 C12.6884831,15.8378229 12.4823567,15.7809963 12.2733995,15.7732472 L12.1606862,15.7732472 C11.9517291,15.7809963 11.7456027,15.8378229 11.5585192,15.94631 L0.659295711,22.2411439 C0.253218962,22.4787823 0,22.9153137 0,23.3905904 L0.0239322799,40.345572 C0.0239322799,40.5806273 0.144880361,40.8001845 0.350749436,40.9164207 C0.551471783,41.0404059 0.8036614,41.0404059 1.00438375,40.9164207 L7.48411287,37.1916974 C7.89327765,36.9473432 8.14289391,36.5154613 8.14289391,36.0448339 L8.14289391,28.1239852 C8.14289391,27.6512915 8.39251016,27.2147601 8.80038826,26.9797048 L11.5590339,25.3849446 C11.7638736,25.2661255 11.9887856,25.2072325 12.2178149,25.2072325 C12.4432415,25.2072325 12.6733002,25.2656089 12.8724786,25.3846863 L15.6298375,26.9789299 C16.0379729,27.2139852 16.2886185,27.6505166 16.2886185,28.1232103 L16.2886185,36.0435424 C16.2886185,36.5136531 16.5415801,36.9476015 16.9486862,37.1904059 L23.424298,40.9125461 C23.6275937,41.0339483 23.8805553,41.0339483 24.083079,40.9125461 C24.282772,40.79631 24.4093815,40.5767528 24.4093815,40.3416974 L24.4304831,23.3892989 Z M75.8637833,32.217048 C75.8637833,32.3350923 75.8012506,32.4443542 75.699088,32.5027306 L71.9553589,34.6688561 C71.8537111,34.7274908 71.7281309,34.7274908 71.6267404,34.6688561 L67.8824966,32.5027306 C67.7795621,32.4440959 67.7178014,32.3348339 67.7178014,32.217048 L67.7178014,27.8785978 C67.7178014,27.7602952 67.7795621,27.6512915 67.8799233,27.5918819 L71.6215937,25.4221402 C71.7245282,25.3627306 71.850623,25.3627306 71.9535576,25.4221402 L75.6978014,27.5918819 C75.8007359,27.6512915 75.8624966,27.7602952 75.8624966,27.8785978 L75.8637833,32.217048 Z M76.8751151,0.0836900369 C76.6707901,-0.0304797048 76.4222032,-0.0273800738 76.2204515,0.0906642066 C76.0197291,0.209483395 75.895693,0.426457565 75.895693,0.661512915 L75.895693,17.4511808 C75.895693,17.6164945 75.8081986,17.768893 75.6656343,17.8515498 C75.5240993,17.9342066 75.3478239,17.9342066 75.2050023,17.8515498 L72.4746637,16.2730627 C72.0680722,16.0369742 71.5672957,16.0369742 71.1591603,16.2730627 L60.2558194,22.5893358 C59.848456,22.8243911 59.5970384,23.2609225 59.5970384,23.7310332 L59.5970384,36.3671956 C59.5970384,36.8398893 59.848456,37.2738376 60.2558194,37.511476 L71.1591603,43.8321402 C71.5662664,44.0671956 72.0675576,44.0671956 72.4759503,43.8321402 L83.3792912,37.508893 C83.7858826,37.2712546 84.0380722,36.8373063 84.0380722,36.3646125 L84.0380722,4.87236162 C84.0380722,4.39295203 83.7781625,3.95202952 83.3612777,3.71774908 L76.8751151,0.0836900369 Z M113.183472,27.764428 C113.588519,27.5283395 113.837878,27.0923247 113.837878,26.622214 L113.837878,23.5597786 C113.837878,23.0886347 113.588262,22.6539114 113.182442,22.4167897 L102.348582,16.1038745 C101.939418,15.8662362 101.437612,15.8662362 101.028447,16.1038745 L90.1276795,22.4193727 C89.7185147,22.6570111 89.4688984,23.0909594 89.4688984,23.5636531 L89.4688984,36.1946494 C89.4688984,36.6699262 89.7236614,37.1090406 90.1328262,37.3440959 L100.964113,43.5407749 C101.362984,43.7706642 101.851923,43.7732472 102.255941,43.548524 L108.807725,39.8935424 C109.013594,39.7773063 109.144835,39.5577491 109.144835,39.3201107 C109.144835,39.0824723 109.01874,38.8603321 108.812871,38.7440959 L97.8451964,32.4260148 C97.6393273,32.3097786 97.5132325,32.0902214 97.5132325,31.8551661 L97.5132325,27.8928044 C97.5132325,27.6561993 97.636754,27.4381919 97.842623,27.3204059 L101.254903,25.3443911 C101.458199,25.225572 101.707815,25.225572 101.911111,25.3443911 L105.325964,27.3204059 C105.52926,27.4366421 105.655354,27.6561993 105.655354,27.8912546 L105.655354,31.0063838 C105.655354,31.2414391 105.781449,31.4609963 105.984745,31.5798155 C106.188041,31.6960517 106.44023,31.6960517 106.643526,31.5772325 L113.183472,27.764428 Z"/>
    <path fill="#689F63" d="M101.528966,27.1734317 C101.606167,27.1277122 101.702926,27.1277122 101.781156,27.1734317 L103.8733,28.3848708 C103.95153,28.4303321 103.999395,28.5140221 103.999395,28.604428 L103.999395,31.0298893 C103.999395,31.1202952 103.95153,31.2039852 103.8733,31.2494465 L101.781156,32.4608856 C101.702926,32.5066052 101.606167,32.5066052 101.528966,32.4608856 L99.4381084,31.2494465 C99.3583341,31.2039852 99.3094402,31.1202952 99.3094402,31.0298893 L99.3094402,28.604428 C99.3094402,28.5140221 99.3557607,28.4303321 99.435535,28.3848708 L101.528966,27.1734317 Z"/>
    <g transform="translate(29.594 16.273)">
      <mask id="nodejs-logo-b" fill="#fff">
        <use xlink:href="#nodejs-logo-a"/>
      </mask>
      <g fill="url(#nodejs-logo-c)" fill-rule="nonzero" mask="url(#nodejs-logo-b)">
        <polygon points="46.414 15.186 15.864 .156 .2 32.23 30.749 47.262" transform="translate(-10.887 -10.078)"/>
      </g>
    </g>
    <g transform="translate(29.594 16.273)">
      <mask id="nodejs-logo-e" fill="#fff">
        <use xlink:href="#nodejs-logo-d"/>
      </mask>
      <g fill="url(#nodejs-logo-f)" fill-rule="nonzero" mask="url(#nodejs-logo-e)">
        <polygon points=".018 21.182 21.589 50.487 50.118 29.331 28.545 .026" transform="translate(-12.688 -11.628)"/>
      </g>
    </g>
    <g transform="translate(30.366 16.531)">
      <mask id="nodejs-logo-h" fill="#fff">
        <use xlink:href="#nodejs-logo-g"/>
      </mask>
      <g fill="url(#nodejs-logo-i)" fill-rule="nonzero" mask="url(#nodejs-logo-h)">
        <polygon points=".005 .241 .005 27.991 23.599 27.991 23.599 .241" transform="translate(.179 .096)"/>
      </g>
    </g>
  </g>
</svg>
